<svg width="248" height="252" viewBox="0 0 248 252" fill="none" xmlns="http://www.w3.org/2000/svg">
<path d="M33.2388 128.103L57.411 187.352C61.4547 197.353 70.4661 204.37 81.1142 205.831L144.334 214.638C154.982 216.099 165.506 211.752 172.074 203.349L211.072 152.82C217.589 144.33 219.152 133.052 215.109 123.051L190.937 63.8023C186.893 53.8016 177.882 46.7843 167.233 45.3233L104.014 36.5168C93.3656 35.0558 82.8411 39.4029 76.2733 47.8061L37.2761 98.3351C30.7582 106.825 29.1951 118.103 33.2388 128.103Z" fill="#19E784"/>
<path d="M60.4725 115.182H65.2112V109.421H66.8475L69.9157 115.182H75.0634L71.518 108.671C73.3759 107.776 74.4839 106.08 74.4839 103.659C74.4839 99.9435 71.8845 97.7276 68.0066 97.7276H60.4725V115.182ZM65.2112 105.739V101.512H66.8816C68.5436 101.512 69.5407 102.159 69.5407 103.659C69.5407 105.151 68.5436 105.739 66.8816 105.739H65.2112ZM82.5154 115.421C86.1461 115.421 88.4814 113.682 88.9245 110.955H84.6291C84.3564 111.696 83.5808 112.114 82.6177 112.114C81.22 112.114 80.4018 111.193 80.4018 109.932V109.728H88.9245V108.637C88.9245 104.469 86.3677 101.921 82.4132 101.921C78.3564 101.921 75.7654 104.614 75.7654 108.671C75.7654 112.907 78.3223 115.421 82.5154 115.421ZM80.4018 107.137C80.4274 106.003 81.3649 105.228 82.5154 105.228C83.6831 105.228 84.5694 106.012 84.595 107.137H80.4018ZM97.1031 120.364C101.245 120.364 103.989 118.472 103.989 115.148V102.091H99.2849V104.375H99.1826C98.6713 103.046 97.444 101.921 95.5008 101.921C92.9099 101.921 90.3872 103.898 90.3872 108.637C90.3872 113.171 92.7395 115.012 95.5349 115.012C97.3076 115.012 98.7054 114.262 99.2167 112.932H99.3531V115.148C99.3531 116.691 98.4582 117.193 97.2395 117.193C96.1571 117.193 95.3645 116.87 95.2281 116.034H90.694C90.873 118.557 93.1656 120.364 97.1031 120.364ZM97.2736 111.671C95.9781 111.671 95.2281 110.58 95.2281 108.637C95.2281 106.693 95.9781 105.534 97.2736 105.534C98.569 105.534 99.3531 106.693 99.3531 108.637C99.3531 110.546 98.569 111.671 97.2736 111.671ZM106.334 115.182H111.039V102.091H106.334V115.182ZM107.118 100.455H110.221L112.777 96.6367H108.755L107.118 100.455ZM125.354 106.353C125.234 103.583 122.933 101.921 119.149 101.921C115.408 101.921 113.098 103.455 113.115 106.182C113.098 108.245 114.436 109.566 117.104 110.034L119.422 110.443C120.445 110.631 120.905 110.904 120.922 111.398C120.905 111.943 120.283 112.25 119.422 112.25C118.357 112.25 117.607 111.79 117.479 110.955H112.808C113.064 113.64 115.382 115.421 119.388 115.421C123.01 115.421 125.678 113.657 125.695 110.853C125.678 108.918 124.382 107.793 121.706 107.307L119.047 106.83C118.05 106.651 117.768 106.293 117.786 105.909C117.768 105.364 118.442 105.057 119.251 105.057C120.18 105.057 120.956 105.551 121.024 106.353H125.354ZM135.256 102.091H133.006V98.9549H128.301V102.091H126.631V105.5H128.301V111.415C128.267 114.159 129.963 115.549 133.211 115.37C134.276 115.31 135.068 115.088 135.495 114.961L134.813 111.654C134.634 111.696 134.174 111.79 133.892 111.79C133.279 111.79 133.006 111.517 133.006 110.972V105.5H135.256V102.091ZM137.128 115.182H141.832V108.364C141.832 106.864 142.864 105.875 144.253 105.875C144.739 105.875 145.523 105.952 145.991 106.114V102.1C145.616 101.989 145.207 101.921 144.798 101.921C143.4 101.921 142.31 102.739 141.832 104.58H141.696V102.091H137.128V115.182ZM153.009 115.421C156.639 115.421 158.975 113.682 159.418 110.955H155.122C154.85 111.696 154.074 112.114 153.111 112.114C151.713 112.114 150.895 111.193 150.895 109.932V109.728H159.418V108.637C159.418 104.469 156.861 101.921 152.906 101.921C148.85 101.921 146.259 104.614 146.259 108.671C146.259 112.907 148.816 115.421 153.009 115.421ZM150.895 107.137C150.921 106.003 151.858 105.228 153.009 105.228C154.176 105.228 155.063 106.012 155.088 107.137H150.895ZM173.255 106.353C173.136 103.583 170.835 101.921 167.051 101.921C163.309 101.921 161 103.455 161.017 106.182C161 108.245 162.338 109.566 165.005 110.034L167.324 110.443C168.346 110.631 168.807 110.904 168.824 111.398C168.807 111.943 168.184 112.25 167.324 112.25C166.258 112.25 165.508 111.79 165.38 110.955H160.71C160.966 113.64 163.284 115.421 167.29 115.421C170.912 115.421 173.579 113.657 173.596 110.853C173.579 108.918 172.284 107.793 169.608 107.307L166.949 106.83C165.951 106.651 165.67 106.293 165.687 105.909C165.67 105.364 166.344 105.057 167.153 105.057C168.082 105.057 168.858 105.551 168.926 106.353H173.255ZM181.624 115.421C185.254 115.421 187.59 113.682 188.033 110.955H183.737C183.465 111.696 182.689 112.114 181.726 112.114C180.328 112.114 179.51 111.193 179.51 109.932V109.728H188.033V108.637C188.033 104.469 185.476 101.921 181.521 101.921C177.465 101.921 174.874 104.614 174.874 108.671C174.874 112.907 177.43 115.421 181.624 115.421ZM179.51 107.137C179.536 106.003 180.473 105.228 181.624 105.228C182.791 105.228 183.678 106.012 183.703 107.137H179.51Z" fill="black"/>
<path d="M117.348 153.182H131.348" stroke="black" stroke-width="2" stroke-linecap="round" stroke-linejoin="round"/>
<path d="M124.348 146.182L131.348 153.182L124.348 160.182" stroke="black" stroke-width="2" stroke-linecap="round" stroke-linejoin="round"/>
</svg>
